<?xml version="1.0" encoding="UTF-8" standalone="no"?>
<!-- Created with Inkscape (http://www.inkscape.org/) -->

<svg
   version="1.1"
   id="svg2"
   xml:space="preserve"
   width="774.66669"
   height="190.66667"
   viewBox="0 0 875.667 215.52561"
   sodipodi:docname="logo_africamultiple_image.svg"
   inkscape:version="1.2.2 (b0a8486541, 2022-12-01)"
   xmlns:inkscape="http://www.inkscape.org/namespaces/inkscape"
   xmlns:sodipodi="http://sodipodi.sourceforge.net/DTD/sodipodi-0.dtd"
   xmlns="http://www.w3.org/2000/svg"
   xmlns:svg="http://www.w3.org/2000/svg"><sodipodi:namedview
     id="namedview62"
     pagecolor="#ffffff"
     bordercolor="#000000"
     borderopacity="0.25"
     inkscape:showpageshadow="2"
     inkscape:pageopacity="0.0"
     inkscape:pagecheckerboard="0"
     inkscape:deskcolor="#d1d1d1"
     showgrid="false"
     inkscape:zoom="0.66235716"
     inkscape:cx="592.58059"
     inkscape:cy="355.54836"
     inkscape:window-width="1920"
     inkscape:window-height="990"
     inkscape:window-x="0"
     inkscape:window-y="28"
     inkscape:window-maximized="1"
     inkscape:current-layer="svg2" /><defs
     id="defs6" /><g
     id="g8"
     transform="matrix(1.3333333,0,0,-1.3333333,-0.0123923,215.95313)"><g
       id="g10"
       transform="scale(0.1)"><g
         id="g12"
         transform="matrix(0,0.763212,1.23679,0,0,0)"><path
           d="M 767.802,1475.57 V 4693"
           style="fill:none;stroke:#43474c;stroke-width:23.8652;stroke-linecap:butt;stroke-linejoin:miter;stroke-miterlimit:22.9256;stroke-dasharray:none;stroke-opacity:1"
           id="path14" /></g><path
         d="m 2132.89,326.141 23.66,-5.977 c -4.94,-19.375 -13.82,-34.109 -26.64,-44.277 -12.83,-10.164 -28.52,-15.27 -47.06,-15.27 -19.17,0 -34.78,3.903 -46.81,11.746 -12.04,7.801 -21.16,19.129 -27.43,33.946 -6.27,14.855 -9.42,30.75 -9.42,47.761 0,18.551 3.52,34.735 10.62,48.551 7.1,13.82 17.18,24.317 30.26,31.496 13.07,7.18 27.47,10.75 43.15,10.75 17.84,0 32.82,-4.523 44.94,-13.613 12.16,-9.086 20.63,-21.824 25.4,-38.262 l -23.16,-5.476 c -4.1,12.949 -10.12,22.41 -17.96,28.3 -7.85,5.934 -17.72,8.883 -29.64,8.883 -13.65,0 -25.1,-3.281 -34.27,-9.836 -9.17,-6.558 -15.64,-15.394 -19.34,-26.433 -3.73,-11.082 -5.6,-22.489 -5.6,-34.235 0,-15.148 2.2,-28.386 6.6,-39.672 4.4,-11.328 11.24,-19.753 20.54,-25.355 9.29,-5.602 19.34,-8.383 30.17,-8.383 13.19,0 24.31,3.82 33.44,11.414 9.13,7.633 15.32,18.922 18.55,33.942"
         style="fill:#19b07b;fill-opacity:1;fill-rule:nonzero;stroke:none"
         id="path16" /><path
         d="m 2212.39,263.605 v 178.274 h 23.66 V 284.52 h 87.64 v -20.915 h -111.3"
         style="fill:#19b07b;fill-opacity:1;fill-rule:nonzero;stroke:none"
         id="path18" /><path
         d="m 2496.31,441.879 h 23.65 V 338.922 c 0,-17.926 -2.03,-32.16 -6.05,-42.699 -4.07,-10.496 -11.37,-19.09 -21.91,-25.688 -10.59,-6.597 -24.41,-9.918 -41.59,-9.918 -16.64,0 -30.29,2.863 -40.87,8.633 -10.62,5.77 -18.17,14.066 -22.7,24.98 -4.52,10.915 -6.8,25.809 -6.8,44.692 v 102.957 h 23.65 V 338.965 c 0,-15.477 1.45,-26.934 4.31,-34.235 2.87,-7.347 7.77,-13.031 14.78,-16.972 6.97,-3.985 15.52,-5.977 25.6,-5.977 17.26,0 29.59,3.946 36.93,11.785 7.35,7.887 11,22.993 11,45.399 v 102.914"
         style="fill:#19b07b;fill-opacity:1;fill-rule:nonzero;stroke:none"
         id="path20" /><path
         d="m 2579.3,320.871 22.16,1.992 c 1.04,-8.961 3.49,-16.308 7.34,-22.074 3.86,-5.726 9.84,-10.375 17.93,-13.945 8.09,-3.528 17.22,-5.313 27.35,-5.313 9,0 16.93,1.332 23.82,4.028 6.89,2.699 11.99,6.39 15.35,11.078 3.36,4.691 5.06,9.797 5.06,15.273 0,5.559 -1.61,10.414 -4.85,14.606 -3.24,4.148 -8.59,7.636 -16.06,10.5 -4.77,1.824 -15.36,4.73 -31.75,8.672 -16.39,3.941 -27.84,7.636 -34.4,11.121 -8.5,4.48 -14.81,10.043 -18.96,16.64 -4.2,6.598 -6.27,14.024 -6.27,22.199 0,9.051 2.57,17.473 7.68,25.274 5.1,7.844 12.53,13.777 22.37,17.844 9.79,4.066 20.7,6.101 32.7,6.101 13.19,0 24.85,-2.117 34.94,-6.39 10.08,-4.235 17.84,-10.5 23.27,-18.797 5.44,-8.262 8.34,-17.637 8.76,-28.094 l -22.65,-1.746 c -1.21,11.246 -5.32,19.754 -12.33,25.48 -7.01,5.766 -17.39,8.629 -31.08,8.629 -14.28,0 -24.7,-2.613 -31.21,-7.84 -6.51,-5.23 -9.79,-11.535 -9.79,-18.921 0,-6.391 2.32,-11.665 6.93,-15.813 4.56,-4.109 16.39,-8.383 35.56,-12.695 19.17,-4.36 32.33,-8.137 39.47,-11.371 10.33,-4.774 18,-10.793 22.94,-18.137 4.94,-7.301 7.39,-15.727 7.39,-25.27 0,-9.504 -2.7,-18.382 -8.13,-26.765 -5.44,-8.387 -13.2,-14.899 -23.37,-19.547 -10.17,-4.649 -21.58,-6.973 -34.31,-6.973 -16.11,0 -29.59,2.367 -40.46,7.055 -10.92,4.691 -19.42,11.746 -25.61,21.203 -6.22,9.422 -9.46,20.09 -9.79,31.996"
         style="fill:#19b07b;fill-opacity:1;fill-rule:nonzero;stroke:none"
         id="path22" /><path
         d="m 2826.08,263.605 v 157.356 h -58.76 v 20.918 h 141.17 v -20.918 h -58.76 V 263.605 h -23.65"
         style="fill:#19b07b;fill-opacity:1;fill-rule:nonzero;stroke:none"
         id="path24" /><path
         d="m 2961.02,263.605 v 178.274 h 128.72 v -20.918 h -105.07 v -54.773 h 98.35 v -20.915 h -98.35 V 284.52 h 109.31 v -20.915 h -132.96"
         style="fill:#19b07b;fill-opacity:1;fill-rule:nonzero;stroke:none"
         id="path26" /><path
         d="m 3154.77,263.605 v 178.274 h 79 c 15.9,0 27.97,-1.617 36.23,-4.816 8.26,-3.196 14.86,-8.836 19.8,-16.926 4.93,-8.094 7.38,-17.059 7.38,-26.852 0,-12.656 -4.11,-23.32 -12.28,-31.996 -8.17,-8.672 -20.79,-14.148 -37.89,-16.512 6.27,-2.988 11,-5.98 14.24,-8.882 6.89,-6.305 13.4,-14.235 19.5,-23.739 l 30.83,-48.551 h -29.46 l -23.57,37.102 c -6.85,10.746 -12.53,18.922 -16.97,24.606 -4.49,5.683 -8.47,9.628 -11.99,11.91 -3.49,2.242 -7.1,3.816 -10.75,4.73 -2.66,0.539 -7.02,0.832 -13.12,0.832 h -27.3 v -79.18 z m 23.65,99.594 h 50.62 c 10.8,0 19.17,1.121 25.23,3.36 6.07,2.203 10.67,5.769 13.78,10.707 3.16,4.898 4.73,10.207 4.73,15.976 0,8.426 -3.03,15.395 -9.13,20.832 -6.1,5.438 -15.72,8.137 -28.88,8.137 h -56.35 v -59.012"
         style="fill:#19b07b;fill-opacity:1;fill-rule:nonzero;stroke:none"
         id="path28" /><path
         d="m 3443.55,350.379 c 0,29.543 7.97,52.699 23.87,69.422 15.89,16.722 36.39,25.066 61.54,25.066 16.47,0 31.29,-3.941 44.52,-11.785 13.2,-7.844 23.29,-18.801 30.21,-32.867 6.93,-14.024 10.42,-29.961 10.42,-47.762 0,-18.051 -3.65,-34.238 -10.96,-48.469 -7.3,-14.277 -17.63,-25.066 -31,-32.371 -13.4,-7.343 -27.84,-10.996 -43.32,-10.996 -16.8,0 -31.79,4.071 -45.03,12.16 -13.19,8.09 -23.23,19.129 -30.04,33.157 -6.8,13.984 -10.21,28.8 -10.21,44.445 z m 24.41,-0.418 c 0,-21.453 5.76,-38.34 17.3,-50.668 11.54,-12.324 26.02,-18.508 43.45,-18.508 17.76,0 32.33,6.227 43.82,18.672 11.45,12.453 17.18,30.133 17.18,53.035 0,14.485 -2.45,27.141 -7.35,37.93 -4.9,10.789 -12.07,19.172 -21.49,25.105 -9.46,5.934 -20.05,8.922 -31.79,8.922 -16.68,0 -31.04,-5.726 -43.07,-17.179 -12.04,-11.454 -18.05,-30.543 -18.05,-57.309"
         style="fill:#19b07b;fill-opacity:1;fill-rule:nonzero;stroke:none"
         id="path30" /><path
         d="m 3673.36,263.605 v 178.274 h 120.26 v -20.918 h -96.6 v -55.52 h 83.65 v -20.914 h -83.65 v -80.922 h -23.66"
         style="fill:#19b07b;fill-opacity:1;fill-rule:nonzero;stroke:none"
         id="path32" /><path
         d="m 3941.4,263.605 v 178.274 h 128.73 v -20.918 h -105.08 v -54.773 h 98.36 v -20.915 h -98.36 V 284.52 h 109.31 V 263.605 H 3941.4"
         style="fill:#19b07b;fill-opacity:1;fill-rule:nonzero;stroke:none"
         id="path34" /><path
         d="m 4116.56,263.605 68.89,92.497 -60.68,85.777 h 28.1 l 32.49,-45.606 c 6.77,-9.46 11.45,-16.683 14.15,-21.703 4.03,6.223 8.76,12.864 14.19,19.879 l 35.61,47.43 h 25.85 l -61.91,-84.738 66.64,-93.536 h -28.96 l -44.98,63.575 c -2.58,3.609 -5.03,7.222 -7.31,10.789 -3.98,-5.973 -6.81,-10.168 -8.55,-12.531 l -45.19,-61.833 h -28.34"
         style="fill:#19b07b;fill-opacity:1;fill-rule:nonzero;stroke:none"
         id="path36" /><path
         d="m 4455.38,326.141 23.65,-5.977 c -4.94,-19.375 -13.82,-34.109 -26.64,-44.277 -12.82,-10.164 -28.51,-15.27 -47.06,-15.27 -19.17,0 -34.77,3.903 -46.81,11.746 -12.03,7.801 -21.16,19.129 -27.43,33.946 -6.26,14.855 -9.41,30.75 -9.41,47.761 0,18.551 3.52,34.735 10.62,48.551 7.09,13.82 17.18,24.317 30.25,31.496 13.07,7.18 27.47,10.75 43.15,10.75 17.85,0 32.83,-4.523 44.95,-13.613 12.15,-9.086 20.62,-21.824 25.39,-38.262 l -23.15,-5.476 c -4.11,12.949 -10.13,22.41 -17.97,28.3 -7.84,5.934 -17.72,8.883 -29.63,8.883 -13.65,0 -25.11,-3.281 -34.27,-9.836 -9.18,-6.558 -15.65,-15.394 -19.34,-26.433 -3.74,-11.082 -5.61,-22.489 -5.61,-34.235 0,-15.148 2.2,-28.386 6.6,-39.672 4.4,-11.328 11.25,-19.753 20.54,-25.355 9.3,-5.602 19.34,-8.383 30.17,-8.383 13.2,0 24.32,3.82 33.45,11.414 9.13,7.633 15.31,18.922 18.55,33.942"
         style="fill:#19b07b;fill-opacity:1;fill-rule:nonzero;stroke:none"
         id="path38" /><path
         d="m 4536.38,263.605 v 178.274 h 128.72 v -20.918 h -105.07 v -54.773 h 98.35 v -20.915 h -98.35 V 284.52 h 109.3 v -20.915 h -132.95"
         style="fill:#19b07b;fill-opacity:1;fill-rule:nonzero;stroke:none"
         id="path40" /><path
         d="m 4728.63,263.605 v 178.274 h 23.65 V 284.52 h 87.64 v -20.915 h -111.29"
         style="fill:#19b07b;fill-opacity:1;fill-rule:nonzero;stroke:none"
         id="path42" /><path
         d="m 4894.77,263.605 v 178.274 h 23.65 V 284.52 h 87.65 v -20.915 h -111.3"
         style="fill:#19b07b;fill-opacity:1;fill-rule:nonzero;stroke:none"
         id="path44" /><path
         d="m 5062.41,263.605 v 178.274 h 128.73 v -20.918 h -105.07 v -54.773 h 98.34 v -20.915 h -98.34 V 284.52 h 109.3 v -20.915 h -132.96"
         style="fill:#19b07b;fill-opacity:1;fill-rule:nonzero;stroke:none"
         id="path46" /><path
         d="m 5255.41,263.605 v 178.274 h 24.23 l 93.54,-139.93 v 139.93 h 22.66 V 263.605 h -24.23 l -93.54,139.93 v -139.93 h -22.66"
         style="fill:#19b07b;fill-opacity:1;fill-rule:nonzero;stroke:none"
         id="path48" /><path
         d="m 5590.12,326.141 23.65,-5.977 c -4.93,-19.375 -13.81,-34.109 -26.64,-44.277 -12.82,-10.164 -28.51,-15.27 -47.06,-15.27 -19.17,0 -34.77,3.903 -46.8,11.746 -12.04,7.801 -21.17,19.129 -27.43,33.946 -6.27,14.855 -9.42,30.75 -9.42,47.761 0,18.551 3.53,34.735 10.62,48.551 7.1,13.82 17.18,24.317 30.25,31.496 13.07,7.18 27.47,10.75 43.16,10.75 17.84,0 32.82,-4.523 44.94,-13.613 12.16,-9.086 20.63,-21.824 25.4,-38.262 l -23.16,-5.476 c -4.11,12.949 -10.13,22.41 -17.97,28.3 -7.84,5.934 -17.71,8.883 -29.62,8.883 -13.66,0 -25.11,-3.281 -34.28,-9.836 -9.17,-6.558 -15.65,-15.394 -19.34,-26.433 -3.74,-11.082 -5.6,-22.489 -5.6,-34.235 0,-15.148 2.2,-28.386 6.59,-39.672 4.4,-11.328 11.25,-19.753 20.55,-25.355 9.29,-5.602 19.33,-8.383 30.17,-8.383 13.19,0 24.31,3.82 33.44,11.414 9.13,7.633 15.31,18.922 18.55,33.942"
         style="fill:#19b07b;fill-opacity:1;fill-rule:nonzero;stroke:none"
         id="path50" /><path
         d="m 5671.12,263.605 v 178.274 h 128.72 v -20.918 h -105.07 v -54.773 h 98.35 v -20.915 h -98.35 V 284.52 h 109.3 v -20.915 h -132.95"
         style="fill:#19b07b;fill-opacity:1;fill-rule:nonzero;stroke:none"
         id="path52" /><path
         d="m 2233.63,806.453 c 0,22.516 -5.94,40.258 -17.93,53.422 -11.99,13.156 -28.37,19.688 -49.13,19.688 -20.77,0 -37.04,-6.532 -48.93,-19.594 -11.9,-12.965 -17.84,-30.899 -17.84,-53.516 0,-22.422 5.94,-40.16 17.93,-53.125 11.99,-12.965 28.27,-19.398 48.84,-19.398 20.76,0 37.14,6.433 49.13,19.398 11.99,12.965 17.93,30.703 17.93,53.125 z m 89.59,143.879 V 661.988 h -93.58 v 46.789 c -13.35,-19.98 -28.27,-34.601 -44.94,-43.961 -16.67,-9.261 -36.26,-13.937 -58.68,-13.937 -38.5,0 -69.21,14.035 -92.32,42.109 -23,28.075 -34.5,65.801 -34.5,112.981 0,47.078 12.09,84.414 36.16,112.195 24.08,27.684 56.44,41.527 97.19,41.527 21.74,0 40.45,-4.679 56.15,-13.937 15.69,-9.262 29.14,-23.496 40.35,-42.797 v 47.375 h 94.17"
         style="fill:#19b07b;fill-opacity:1;fill-rule:nonzero;stroke:none"
         id="path54" /><path
         d="m 2409.88,661.988 v 216.403 h -43.38 v 71.941 h 43.38 v 59.168 c 0,33.54 9.16,58.78 27.39,75.64 18.32,16.97 45.72,25.45 82.08,25.45 5.17,0 11.31,-0.49 18.42,-1.46 7.12,-0.88 14.82,-2.25 23,-3.9 v -77.69 c -4.57,1.75 -8.77,3.12 -12.66,4 -4,0.87 -7.51,1.26 -10.73,1.26 -9.55,0 -16.57,-2.82 -20.96,-8.58 -4.38,-5.75 -6.53,-15.01 -6.53,-27.876 v -46.012 h 50.88 v -71.941 h -50.88 V 661.988 h -100.01"
         style="fill:#19b07b;fill-opacity:1;fill-rule:nonzero;stroke:none"
         id="path56" /><path
         d="m 2605.81,661.988 v 288.344 h 96.02 v -67.941 c 9.94,24.855 23.39,43.379 40.55,55.757 17.16,12.379 37.92,18.622 62.29,18.622 3.99,0 8.09,-0.102 12.19,-0.395 4.09,-0.289 8.18,-0.777 12.37,-1.363 l -9.94,-92.407 c -6.04,2.043 -12.09,3.508 -17.93,4.481 -5.95,0.879 -11.61,1.367 -17.16,1.367 -24.66,0 -43.67,-7.605 -57.13,-22.715 C 2713.72,830.629 2707,809.184 2707,781.402 V 661.988 h -101.19"
         style="fill:#19b07b;fill-opacity:1;fill-rule:nonzero;stroke:none"
         id="path58" /><path
         d="m 2864.23,1040.4 c 0,15.41 5.46,28.47 16.47,39.29 10.92,10.82 24.08,16.28 39.58,16.28 15.99,0 29.34,-5.36 40.06,-15.99 10.82,-10.62 16.18,-23.78 16.18,-39.58 0,-15.79 -5.45,-29.14 -16.47,-40.16 -10.92,-11.013 -24.17,-16.568 -39.77,-16.568 -15.3,0 -28.46,5.656 -39.48,16.868 -11.01,11.21 -16.57,24.46 -16.57,39.86 z m 5.26,-378.412 v 288.344 h 101.77 V 661.988 h -101.77"
         style="fill:#19b07b;fill-opacity:1;fill-rule:nonzero;stroke:none"
         id="path60" /><path
         d="m 3256.09,855.586 c -9.94,8.773 -19.39,15.109 -28.55,19.105 -9.17,3.997 -18.72,6.043 -28.86,6.043 -20.18,0 -36.26,-6.629 -48.15,-19.984 -11.9,-13.355 -17.84,-31.387 -17.84,-54.297 0,-22.027 6.24,-39.672 18.61,-52.832 12.38,-13.16 28.96,-19.691 49.91,-19.691 10.34,0 19.99,2.047 29.05,6.14 9.07,4.098 17.65,10.43 25.83,19.008 v -88.219 c -12.18,-6.824 -24.36,-11.89 -36.55,-15.109 -12.18,-3.215 -24.76,-4.871 -37.72,-4.871 -44.36,0 -80.33,14.23 -107.82,42.695 -27.58,28.461 -41.33,65.992 -41.33,112.395 0,45.133 14.04,82.074 42.12,110.734 28.17,28.656 64.14,42.988 108.19,42.988 14.63,0 27.88,-1.461 39.68,-4.289 11.79,-2.828 23,-7.406 33.43,-13.742 v -86.074"
         style="fill:#19b07b;fill-opacity:1;fill-rule:nonzero;stroke:none"
         id="path62" /><path
         d="m 3538.49,806.453 c 0,22.516 -5.94,40.258 -17.93,53.422 -11.99,13.156 -28.37,19.688 -49.13,19.688 -20.77,0 -37.05,-6.532 -48.94,-19.594 -11.89,-12.965 -17.83,-30.899 -17.83,-53.516 0,-22.422 5.94,-40.16 17.93,-53.125 11.99,-12.965 28.27,-19.398 48.84,-19.398 20.76,0 37.14,6.433 49.13,19.398 11.99,12.965 17.93,30.703 17.93,53.125 z m 89.58,143.879 V 661.988 h -93.57 v 46.789 c -13.36,-19.98 -28.27,-34.601 -44.94,-43.961 -16.67,-9.261 -36.26,-13.937 -58.68,-13.937 -38.51,0 -69.21,14.035 -92.32,42.109 -23,28.075 -34.51,65.801 -34.51,112.981 0,47.078 12.09,84.414 36.17,112.195 24.08,27.684 56.44,41.527 97.19,41.527 21.73,0 40.45,-4.679 56.14,-13.937 15.7,-9.262 29.15,-23.496 40.36,-42.797 v 47.375 h 94.16"
         style="fill:#19b07b;fill-opacity:1;fill-rule:nonzero;stroke:none"
         id="path64" /><path
         d="m 3772.05,661.988 h -61.99 v 270.797 h 58.29 v -44.449 c 12.38,18.91 26.42,32.754 42.11,41.43 15.7,8.675 34.22,12.964 55.56,12.964 21.16,0 38.7,-4.386 52.55,-13.257 13.93,-8.871 24.47,-22.418 31.68,-40.551 14.33,18.715 29.53,32.363 45.62,40.941 16.08,8.578 34.41,12.867 54.97,12.867 17.84,0 33.44,-3.312 46.8,-9.843 13.35,-6.633 23.68,-16.184 31.09,-28.758 3.51,-5.848 6.04,-12.965 7.6,-21.152 1.66,-8.192 2.44,-19.887 2.44,-35.094 V 826.145 661.988 h -62 v 139.008 c 0,36.359 -3.89,60.336 -11.6,71.84 -7.7,11.504 -21.44,17.254 -41.23,17.254 -24.37,0 -41.72,-7.797 -52.05,-23.297 -10.43,-15.5 -15.6,-42.695 -15.6,-81.492 V 661.988 h -62.58 v 139.008 c 0,33.531 -4,56.731 -12.09,69.699 -8.09,12.961 -22.13,19.395 -41.92,19.395 -12.18,0 -23.29,-2.727 -33.33,-8.285 -10.14,-5.555 -18.14,-13.157 -24.08,-22.809 -3.8,-6.336 -6.43,-14.039 -7.99,-23.101 -1.47,-9.165 -2.25,-26.032 -2.25,-50.594 V 661.988"
         style="fill:#43474c;fill-opacity:1;fill-rule:nonzero;stroke:none"
         id="path66" /><path
         d="M 4282.07,932.785 V 780.137 c 0,-26.227 5.45,-45.137 16.27,-56.539 10.82,-11.407 28.37,-17.157 52.74,-17.157 24.37,0 41.92,5.75 52.74,17.157 10.82,11.402 16.28,30.312 16.28,56.539 v 152.648 h 61.99 V 798.754 c 0,-51.762 -10.33,-89.387 -31.09,-112.781 -20.77,-23.399 -53.91,-35.094 -99.33,-35.094 -46.21,0 -79.74,11.598 -100.51,34.797 -20.76,23.203 -31.09,60.926 -31.09,113.078 v 134.031 h 62"
         style="fill:#43474c;fill-opacity:1;fill-rule:nonzero;stroke:none"
         id="path68" /><path
         d="m 4568.56,661.988 v 442.752 h 61.99 V 661.988 h -61.99"
         style="fill:#43474c;fill-opacity:1;fill-rule:nonzero;stroke:none"
         id="path70" /><path
         d="m 4733.59,661.988 v 216.403 h -47.38 v 54.394 h 47.38 v 102.355 h 62 V 932.785 h 47.37 v -54.394 h -47.37 V 661.988 h -62"
         style="fill:#43474c;fill-opacity:1;fill-rule:nonzero;stroke:none"
         id="path72" /><path
         d="m 4891.02,1049.76 c 0,10.43 3.9,19.5 11.6,27.2 7.7,7.6 16.86,11.4 27.58,11.4 11.02,0 20.28,-3.7 27.59,-11.01 7.31,-7.31 11.02,-16.57 11.02,-27.59 0,-11.11 -3.71,-20.37 -11.11,-27.88 -7.51,-7.5 -16.68,-11.31 -27.5,-11.31 -10.72,0 -19.88,3.91 -27.58,11.61 -7.7,7.7 -11.6,16.86 -11.6,27.58 z m 8.19,-387.772 v 270.797 h 61.99 V 661.988 h -61.99"
         style="fill:#43474c;fill-opacity:1;fill-rule:nonzero;stroke:none"
         id="path74" /><path
         d="m 5109.57,798.266 c 0,-28.075 7.02,-50.493 21.05,-67.262 13.94,-16.766 32.36,-25.149 55.27,-25.149 23.4,0 41.53,7.797 54.4,23.493 12.86,15.597 19.3,37.82 19.3,66.578 0,28.562 -6.73,50.98 -20.18,67.066 -13.36,16.082 -31.78,24.172 -55.27,24.172 -23.4,0 -41.62,-7.797 -54.78,-23.488 -13.16,-15.598 -19.79,-37.434 -19.79,-65.41 z m -59.95,-263.778 v 398.297 h 61.99 v -44.156 c 7.22,17.059 18.82,30.219 34.71,39.578 15.89,9.258 34.89,13.941 57.02,13.941 35.97,0 65.21,-13.257 87.64,-39.871 22.32,-26.515 33.53,-61.414 33.53,-104.597 0,-45.524 -11.02,-81.395 -33.05,-107.52 -21.93,-26.219 -52.15,-39.281 -90.36,-39.281 -19.1,0 -35.97,3.801 -50.79,11.402 -14.72,7.602 -27.68,19.207 -38.7,34.703 V 534.488 h -61.99"
         style="fill:#43474c;fill-opacity:1;fill-rule:nonzero;stroke:none"
         id="path76" /><path
         d="m 5392.94,661.988 v 442.752 h 62 V 661.988 h -62"
         style="fill:#43474c;fill-opacity:1;fill-rule:nonzero;stroke:none"
         id="path78" /><path
         d="m 5804.2,788.32 h -216.4 c 1.56,-25.343 9.06,-45.129 22.61,-59.363 13.46,-14.23 31.49,-21.348 54.01,-21.348 19.98,0 36.65,4.196 49.91,12.575 13.35,8.382 24.95,21.933 34.9,40.652 l 52.05,-29.148 c -15.21,-27.293 -34.02,-47.473 -56.54,-60.829 -22.42,-13.355 -48.83,-19.98 -79.05,-19.98 -43.48,0 -77.99,13.258 -103.72,39.672 -25.64,26.515 -38.51,61.801 -38.51,105.961 0,42.5 13.26,77.301 39.88,104.691 26.51,27.293 60.62,40.945 102.35,40.945 43.57,0 77.59,-12.48 101.96,-37.437 24.37,-24.856 36.55,-59.848 36.55,-104.691 z m -64.33,41.528 c -2.44,19.398 -9.85,34.215 -22.23,44.355 -12.38,10.235 -29.34,15.305 -50.78,15.305 -20.38,0 -36.75,-4.973 -49.13,-14.817 -12.28,-9.945 -20.96,-24.859 -25.93,-44.843 h 148.07"
         style="fill:#43474c;fill-opacity:1;fill-rule:nonzero;stroke:none"
         id="path80" /><g
         id="g82"
         transform="matrix(0.122975,-0.875015,0.878539,0.123471,0,0)"><path
           d="m -1330.58,1468.34 c 0,358.93 292.14,649.9 652.517,649.89 360.373,0.01 652.5151,-290.96 652.5138,-649.9 0.0036,-358.92 -292.1398,-649.893 -652.5128,-649.892 -360.378,10e-4 -652.518,290.972 -652.518,649.902 z"
           style="fill:none;stroke:#153263;stroke-width:14.7861;stroke-linecap:butt;stroke-linejoin:miter;stroke-miterlimit:22.9256;stroke-dasharray:none;stroke-opacity:1"
           id="path84" /></g><g
         id="g86"
         transform="matrix(0.122969,-0.874966,0.878588,0.123478,0,0)"><path
           d="m -1256.11,1529.73 c 0,355.35 289.269,643.43 646.096,643.43 356.825,-0.01 646.0913,-288.08 646.0912,-643.44 6e-4,-355.35 -289.2652,-643.424 -646.0912,-643.424 -356.826,0.003 -646.096,288.074 -646.096,643.434 z"
           style="fill:none;stroke:#d37e1e;stroke-width:14.7855;stroke-linecap:butt;stroke-linejoin:miter;stroke-miterlimit:22.9256;stroke-dasharray:none;stroke-opacity:1"
           id="path88" /></g><g
         id="g90"
         transform="matrix(0.122969,-0.874966,0.878588,0.123478,0,0)"><path
           d="m -1338.47,1579.53 c 0,355.35 289.27,643.43 646.092,643.43 356.826,0 646.0913,-288.08 646.0874,-643.43 0,-355.36 -289.2654,-643.429 -646.0914,-643.43 -356.818,-10e-4 -646.088,288.07 -646.088,643.43 z"
           style="fill:none;stroke:#4c96d0;stroke-width:14.7855;stroke-linecap:butt;stroke-linejoin:miter;stroke-miterlimit:22.9256;stroke-dasharray:none;stroke-opacity:1"
           id="path92" /></g><path
         d="M 1457.96,663.105 1307.88,639.434 1270.3,1267.65 Z"
         style="fill:#153263;fill-opacity:1;fill-rule:evenodd;stroke:none"
         id="path94" /><g
         id="g96"><path
           d="M 724.762,185.117 1551.07,1300.01 1062.89,190.715"
           style="fill:none;stroke:#ef9d16;stroke-width:15.595;stroke-linecap:round;stroke-linejoin:round;stroke-miterlimit:22.9256;stroke-dasharray:none;stroke-opacity:1"
           id="path98" /></g><path
         d="m 1151.99,113.855 c -4.94,-5.164 -13.13,-5.355 -18.3,-0.421 -5.16,4.937 -5.35,13.129 -0.41,18.296 236.24,247.618 402.99,408.446 502.22,501.774 -173.83,-115.375 -526,-336.012 -1049.91,-577.1134 -6.516,-2.9804 -14.219,-0.1172 -17.203,6.3985 -2.981,6.5156 -0.114,14.2226 6.398,17.1992 C 1205.32,370.16 1586.05,630.402 1705.91,712.324 c 72.57,49.614 91.33,36.047 15.02,-34.672 -78.79,-73.004 -267.8,-248.148 -568.94,-563.797"
         style="fill:#d37e1e;fill-opacity:1;fill-rule:nonzero;stroke:none"
         id="path100" /><path
         d="m 1559.22,407.746 c 2.28,-6.785 -1.36,-14.137 -8.15,-16.418 -6.78,-2.281 -14.14,1.363 -16.42,8.152 -109.37,324.106 -218.95,682.57 -255.48,813.9 21.35,-207.55 53.02,-621.966 22.96,-1197.8448 -0.35,-7.15239 -6.44,-12.66801 -13.59,-12.31254 -7.16,0.35156 -12.68,6.4414 -12.32,13.59764 36.18,693.2927 -17.25,1200.6797 -34.07,1344.8597 -10.64,91.15 12.45,90.54 37.67,-2.83 27.99,-103.6 139.81,-537.436 279.4,-951.104"
         style="fill:#153263;fill-opacity:1;fill-rule:nonzero;stroke:none"
         id="path102" /><path
         d="m 572.773,392.969 c -6.246,-3.481 -14.136,-1.242 -17.621,5.004 -3.48,6.25 -1.238,14.14 5.008,17.621 298.645,166.515 505.89,270.976 628.48,330.867 C 988.602,687.699 586.879,581.051 14.7422,505.652 7.65625,504.711 1.14844,509.695 0.207031,516.781 -0.734375,523.867 4.25391,530.371 11.3398,531.313 699.398,621.992 1140.17,758.004 1278.93,800.82 c 147.72,45.582 34.26,-23.039 4.06,-37.515 -96.6,-46.313 -328.349,-157.422 -710.217,-370.336"
         style="fill:#4c96d0;fill-opacity:1;fill-rule:nonzero;stroke:none"
         id="path104" /><path
         d="m 1579.32,208.953 c 2.73,-3.308 2.25,-8.211 -1.06,-10.933 -3.31,-2.727 -8.21,-2.247 -10.94,1.062 L 683.891,1269.28 c -2.723,3.31 -2.246,8.21 1.066,10.93 2.852,2.35 6.883,2.32 9.688,0.15 v 0 L 1653.96,539.723 c 3.4,-2.621 4.03,-7.504 1.41,-10.907 -2.63,-3.394 -7.51,-4.019 -10.91,-1.394 L 740.023,1225.69 1579.32,208.953"
         style="fill:#cfa550;fill-opacity:1;fill-rule:nonzero;stroke:none"
         id="path106" /><path
         d="m 2091.86,1347.12 c 5.64,4.39 13.78,3.37 18.17,-2.28 4.39,-5.64 3.38,-13.78 -2.27,-18.17 -269.88,-209.96 -474.36,-345.143 -586.42,-422.959 188.79,88.477 663.21,299.099 1217.25,460.549 6.86,2.01 14.05,-1.94 16.05,-8.8 2.01,-6.85 -1.93,-14.04 -8.79,-16.05 -666.3,-194.16 -1174.86,-439.742 -1305.5,-503.148 -79.76,-38.711 -93.88,-21.059 -9.71,36.465 88.44,60.453 316.13,205.923 661.22,474.393"
         style="fill:#19b07b;fill-opacity:1;fill-rule:nonzero;stroke:none"
         id="path108" /><path
         d="m 1949.82,1235.94 72.93,-133.29 -578.7,-247.341 z"
         style="fill:#19b07b;fill-opacity:1;fill-rule:evenodd;stroke:none"
         id="path110" /><path
         d="M 669.875,630.145 1245.18,764.121 772.082,517.086 Z"
         style="fill:#4c96d0;fill-opacity:1;fill-rule:evenodd;stroke:none"
         id="path112" /><path
         d="m 1074.29,803.633 -383.845,464.707 4.746,7.35 456.999,-358.393 -77.9,-113.664"
         style="fill:#cfa550;fill-opacity:1;fill-rule:evenodd;stroke:none"
         id="path114" /><path
         d="m 1307.08,971.395 99.41,-14.243 c 168.28,384.598 237.28,490.638 -46.27,87.318 l -53.14,-73.075"
         style="fill:#ef9d16;fill-opacity:1;fill-rule:evenodd;stroke:none"
         id="path116" /><g
         id="g118"
         transform="matrix(0.122968,-0.87496,0.878594,0.123478,0,0)"><path
           d="m -1329.48,1518.68 c 0,364.03 296.34,659.14 661.887,659.14 365.548,0 661.8849,-295.11 661.8827,-659.15 0.00284,-364.03 -296.3347,-659.146 -661.8827,-659.144 -365.547,-0.003 -661.887,295.104 -661.887,659.154 z"
           style="fill:none;stroke:#19b07b;stroke-width:14.7835;stroke-linecap:butt;stroke-linejoin:miter;stroke-miterlimit:22.9256;stroke-dasharray:none;stroke-opacity:1"
           id="path120" /></g><path
         d="m 1304.77,290.434 -16.85,-17.196 -54.65,128.914 492.81,308.246 -421.31,-419.964"
         style="fill:#d37e1e;fill-opacity:1;fill-rule:evenodd;stroke:none"
         id="path122" /></g></g></svg>
